<svg width="12" height="13" viewBox="0 0 12 13" fill="none" xmlns="http://www.w3.org/2000/svg">
<path d="M2.71511 5.542L1.34311 6.914C0.780453 7.47666 0.464355 8.23978 0.464355 9.0355C0.464355 9.83122 0.780453 10.5943 1.34311 11.157C1.90577 11.7197 2.66889 12.0358 3.46461 12.0358C4.26033 12.0358 5.02345 11.7197 5.58611 11.157L7.41411 9.328C7.7534 8.98866 8.00634 8.57287 8.1517 8.11555C8.29706 7.65822 8.33058 7.1727 8.24947 6.69974C8.16836 6.22677 7.97497 5.78016 7.68554 5.3974C7.39611 5.01464 7.01909 4.7069 6.58611 4.5L6.00011 5.086C5.94062 5.1456 5.88888 5.21246 5.84611 5.285C6.18064 5.38117 6.48427 5.56298 6.727 5.81246C6.96973 6.06194 7.14315 6.37044 7.23011 6.70748C7.31707 7.04452 7.31457 7.39842 7.22284 7.73419C7.13112 8.06996 6.95335 8.37598 6.70711 8.622L4.88011 10.45C4.50483 10.8253 3.99584 11.0361 3.46511 11.0361C2.93438 11.0361 2.42539 10.8253 2.05011 10.45C1.67483 10.0747 1.464 9.56573 1.464 9.035C1.464 8.50427 1.67483 7.99528 2.05011 7.62L2.84311 6.828C2.73122 6.40873 2.688 5.9741 2.71511 5.541V5.542Z" fill="#818181"/>
<path d="M4.58605 3.6716C4.24675 4.01094 3.99381 4.42673 3.84846 4.88405C3.7031 5.34138 3.66957 5.8269 3.75069 6.29986C3.8318 6.77283 4.02519 7.21943 4.31462 7.60219C4.60405 7.98495 4.98107 8.2927 5.41405 8.4996L6.18905 7.7236C5.85 7.63265 5.54085 7.45407 5.29268 7.2058C5.04451 6.95753 4.86606 6.64831 4.77526 6.30922C4.68446 5.97013 4.6845 5.61311 4.77539 5.27405C4.86628 4.93498 5.04482 4.62581 5.29305 4.3776L7.12005 2.5496C7.49533 2.17432 8.00432 1.96349 8.53505 1.96349C9.06578 1.96349 9.57477 2.17432 9.95005 2.5496C10.3253 2.92488 10.5362 3.43387 10.5362 3.9646C10.5362 4.49533 10.3253 5.00432 9.95005 5.3796L9.15705 6.1716C9.26905 6.5916 9.31205 7.0266 9.28505 7.4586L10.657 6.0866C11.2197 5.52394 11.5358 4.76082 11.5358 3.9651C11.5358 3.16938 11.2197 2.40625 10.657 1.8436C10.0944 1.28094 9.33126 0.964844 8.53555 0.964844C7.73983 0.964844 6.9767 1.28094 6.41405 1.8436L4.58605 3.6716Z" fill="#818181"/>
</svg>
